<?xml version="1.0" standalone="no"?>
<!DOCTYPE svg PUBLIC "-//W3C//DTD SVG 20010904//EN"
 "http://www.w3.org/TR/2001/REC-SVG-20010904/DTD/svg10.dtd">
<svg version="1.0" xmlns="http://www.w3.org/2000/svg"
 width="200.000000pt" height="200.000000pt" viewBox="0 0 200.000000 200.000000"
 preserveAspectRatio="xMidYMid meet">

<g transform="translate(0.000000,200.000000) scale(0.100000,-0.100000)"
fill="#000000" stroke="none">
<path d="M401 1808 c0 -106 4 -215 8 -243 5 -27 6 -52 2 -55 -4 -3 -7 -15 -7
-27 0 -21 1 -21 18 -6 11 9 17 22 14 29 -3 8 1 11 9 7 8 -3 12 -10 8 -16 -3
-6 -1 -7 6 -3 6 4 9 10 7 14 -2 4 2 13 10 20 8 7 14 8 14 3 0 -6 7 -8 16 -4
13 5 13 8 2 15 -9 7 -8 8 5 4 11 -3 24 -3 30 1 20 12 70 18 152 17 69 0 90 -5
145 -31 36 -16 85 -48 109 -70 l45 -40 40 39 c85 80 214 119 327 99 165 -29
301 -166 338 -339 6 -32 11 -163 11 -325 0 -251 -2 -274 -19 -303 -42 -69
-140 -63 -174 9 -15 30 -17 74 -17 309 0 242 -2 277 -19 313 -30 68 -113 125
-181 125 -68 0 -151 -57 -181 -125 -17 -36 -19 -71 -19 -313 0 -303 -4 -328
-60 -357 -44 -23 -92 -13 -124 26 l-26 31 0 276 c-1 202 -4 287 -14 314 -31
86 -104 138 -194 138 -29 0 -52 -4 -52 -10 0 -5 -7 -6 -17 -3 -12 5 -14 3 -8
-7 6 -9 4 -11 -4 -5 -14 8 -84 -59 -74 -69 4 -3 1 -6 -6 -6 -7 0 -9 -4 -6 -10
3 -5 1 -10 -5 -10 -7 0 -10 -7 -6 -15 3 -8 1 -15 -3 -15 -5 0 -10 -125 -11
-281 0 -168 -5 -289 -11 -301 -5 -10 -7 -24 -3 -30 4 -7 3 -8 -4 -4 -7 4 -12
2 -12 -3 0 -6 6 -11 13 -11 8 0 7 -4 -3 -10 -22 -14 -30 -12 -24 8 4 10 3 13
-3 6 -4 -6 -17 -16 -28 -22 -19 -11 -19 -11 5 -13 24 -1 23 -1 -5 -10 -16 -5
-38 -7 -48 -5 -10 2 -14 0 -11 -6 4 -6 -2 -8 -17 -3 -13 4 -21 4 -17 0 4 -4
28 -9 53 -10 30 -1 41 2 33 8 -9 6 -8 7 5 3 10 -3 24 -6 30 -7 7 0 2 -4 -10
-9 -17 -7 -23 -18 -23 -40 0 -16 5 -30 10 -30 6 0 10 -7 10 -15 0 -8 -7 -15
-15 -15 -13 0 -15 -24 -15 -155 0 -148 1 -155 20 -155 40 0 19 -20 -22 -21
l-43 -2 40 -7 c34 -6 36 -7 11 -9 -43 -2 -28 -9 27 -14 25 -1 50 -6 53 -10 4
-4 346 -7 761 -7 l753 0 0 995 0 995 -800 0 -800 0 1 -192z"/>
<path d="M370 1509 c0 -5 5 -7 10 -4 6 3 10 8 10 11 0 2 -4 4 -10 4 -5 0 -10
-5 -10 -11z"/>
<path d="M345 1431 c3 -2 -2 -12 -11 -22 -12 -13 -12 -19 -3 -25 7 -4 10 -3 5
4 -3 5 5 19 20 29 23 17 23 19 5 19 -11 0 -18 -2 -16 -5z"/>
<path d="M295 1349 c-4 -6 -5 -12 -2 -15 2 -3 7 2 10 11 7 17 1 20 -8 4z"/>
</g>
</svg>
